<svg width="14" height="17" viewBox="0 0 14 17" fill="none" xmlns="http://www.w3.org/2000/svg">
<path d="M6.99998 16.3334C7.91665 16.3334 8.66665 15.5834 8.66665 14.6667H5.33331C5.33331 15.1087 5.50891 15.5327 5.82147 15.8452C6.13403 16.1578 6.55795 16.3334 6.99998 16.3334ZM12 11.3334V7.16671C12 4.60837 10.6333 2.46671 8.24998 1.90004V1.33337C8.24998 0.641707 7.69165 0.083374 6.99998 0.083374C6.30831 0.083374 5.74998 0.641707 5.74998 1.33337V1.90004C3.35831 2.46671 1.99998 4.60004 1.99998 7.16671V11.3334L0.333313 13V13.8334H13.6666V13L12 11.3334Z" fill="#2C2E3D"/>
</svg>
