<svg width="14" height="12" viewBox="0 0 14 12" fill="none" xmlns="http://www.w3.org/2000/svg">
<path d="M7.66667 8.66675V9.33341C7.66667 9.86385 7.45595 10.3726 7.08088 10.7476C6.70581 11.1227 6.1971 11.3334 5.66667 11.3334H3C2.46957 11.3334 1.96086 11.1227 1.58579 10.7476C1.21071 10.3726 1 9.86385 1 9.33341V2.66675C1 2.13631 1.21071 1.62761 1.58579 1.25253C1.96086 0.877462 2.46957 0.666748 3 0.666748H5.66667C6.1971 0.666748 6.70581 0.877462 7.08088 1.25253C7.45595 1.62761 7.66667 2.13631 7.66667 2.66675V3.33341M10.3333 8.66675L13 6.00008L10.3333 8.66675ZM13 6.00008L10.3333 3.33341L13 6.00008ZM13 6.00008H3.66667H13Z" stroke="#EF0C35" stroke-linecap="round" stroke-linejoin="round"/>
</svg>
