<svg width="28" height="28" viewBox="0 0 28 28" fill="none" xmlns="http://www.w3.org/2000/svg">
<path d="M11.552 15.476L13.9747 16.8747L16.468 15.4347V12.68L13.9467 11.2267L11.552 12.7227V15.476ZM8.88535 13.936V4.63734C6.40844 5.99323 4.56837 8.27378 3.76669 10.9813L8.88669 13.936H8.88535ZM3.33469 13.8107L3.33335 14C3.32942 16.7282 4.37492 19.3535 6.25335 21.332L11.3067 18.4133L3.33469 13.8107ZM11.552 9.57867L19.296 4.73867C17.684 3.81493 15.8579 3.33035 14 3.33334C13.1574 3.33334 12.3387 3.43067 11.552 3.616V9.57867ZM21.556 6.47201L16.508 9.62534L24.6614 14.3333C24.7088 12.8801 24.4578 11.4325 23.9236 10.0801C23.3895 8.72777 22.5837 7.50063 21.556 6.47201ZM19.1347 14.2213V23.352C21.5622 22.0163 23.3767 19.7908 24.196 17.144L19.1347 14.2213ZM8.47735 23.128C10.1423 24.1376 12.0529 24.6699 14 24.6667C14.8494 24.6667 15.676 24.568 16.4667 24.38V18.5133L8.47735 23.1267V23.128ZM14 27.3333C6.63602 27.3333 0.666687 21.364 0.666687 14C0.666687 6.63601 6.63602 0.666672 14 0.666672C21.364 0.666672 27.3334 6.63601 27.3334 14C27.3334 21.364 21.364 27.3333 14 27.3333Z" fill="white"/>
</svg>
