<svg width="28" height="28" viewBox="0 0 28 28" fill="none" xmlns="http://www.w3.org/2000/svg">
<path d="M14 3.83335C14.4596 3.83335 14.9148 3.92388 15.3394 4.09978C15.7641 4.27567 16.1499 4.53347 16.4749 4.85848C16.7999 5.18348 17.0577 5.56932 17.2336 5.99396C17.4095 6.4186 17.5 6.87373 17.5 7.33335C17.5 7.79298 17.4095 8.24811 17.2336 8.67275C17.0577 9.09739 16.7999 9.48322 16.4749 9.80823C16.1499 10.1332 15.7641 10.391 15.3394 10.5669C14.9148 10.7428 14.4596 10.8334 14 10.8334C13.0718 10.8334 12.1815 10.4646 11.5251 9.80823C10.8688 9.15185 10.5 8.26161 10.5 7.33335C10.5 6.4051 10.8688 5.51486 11.5251 4.85848C12.1815 4.2021 13.0718 3.83335 14 3.83335ZM14 18.8334C18.95 18.8334 24.1667 21.2667 24.1667 22.3334V24.1667H3.83335V22.3334C3.83335 21.2667 9.05002 18.8334 14 18.8334ZM14 0.666687C10.3167 0.666687 7.33335 3.65002 7.33335 7.33335C7.33335 11.0167 10.3167 14 14 14C17.6834 14 20.6667 11.0167 20.6667 7.33335C20.6667 3.65002 17.6834 0.666687 14 0.666687ZM14 15.6667C9.55002 15.6667 0.666687 17.9 0.666687 22.3334V27.3334H27.3334V22.3334C27.3334 17.9 18.45 15.6667 14 15.6667Z" fill="#0057FF"/>
</svg>
