<svg width="35" height="35" viewBox="0 0 35 35" fill="none" xmlns="http://www.w3.org/2000/svg">
<path d="M19.155 2.5117L20.5183 3.87503L2.53 21.8634C1.11333 23.28 0.333328 25.1634 0.333328 27.1667C0.333328 29.17 1.11333 31.0534 2.53 32.4717C3.94833 33.8867 5.83166 34.6667 7.83333 34.6667C9.835 34.6667 11.7183 33.8867 13.1367 32.47L31.125 14.4817L32.4883 15.845L34.845 13.4884L21.5117 0.155029L19.155 2.5117ZM24.4583 16.435L20.4533 12.4284L18.0967 14.785L22.1017 18.7917L19.745 21.15L18.095 19.5L15.7383 21.8567L17.3883 23.5067L15.03 25.865L11.025 21.8584L8.66666 24.2134L12.6717 28.22L10.7783 30.1134C9.20333 31.6867 6.46166 31.6867 4.88666 30.1134C4.09999 29.325 3.66666 28.28 3.66666 27.1667C3.66666 26.0534 4.09999 25.0084 4.88666 24.22L22.875 6.2317L28.7667 12.1234L24.4583 16.435Z" fill="#0057FF"/>
</svg>
